<?xml version="1.0" encoding="UTF-8"?>
<svg width="64px" height="44px" viewBox="0 0 64 44" version="1.1" xmlns="http://www.w3.org/2000/svg" xmlns:xlink="http://www.w3.org/1999/xlink">
    <!-- Generator: Sketch 42 (36781) - http://www.bohemiancoding.com/sketch -->
    <title>Group</title>
    <desc>Created with Sketch.</desc>
    <defs></defs>
    <g id="INSTALL-PAGE" stroke="none" stroke-width="1" fill="none" fill-rule="evenodd">
        <g id="Install-Page-Copy" transform="translate(-666.000000, -808.000000)" fill="#1E2221">
            <g id="Group" transform="translate(666.000000, 808.000000)">
                <path d="M5.414,42 L58.586,42 L62,38.586 L62,38 L39.414,38 L37.707,39.707 C37.52,39.895 37.266,40 37,40 L27,40 C26.734,40 26.48,39.895 26.293,39.707 L24.586,38 L2,38 L2,38.586 L5.414,42 Z M59,44 L5,44 C4.734,44 4.48,43.895 4.293,43.707 L0.293,39.707 C0.105,39.52 0,39.265 0,39 L0,37 C0,36.448 0.447,36 1,36 L25,36 C25.266,36 25.52,36.105 25.707,36.293 L27.414,38 L36.586,38 L38.293,36.293 C38.48,36.105 38.734,36 39,36 L63,36 C63.553,36 64,36.448 64,37 L64,39 C64,39.265 63.895,39.52 63.707,39.707 L59.707,43.707 C59.52,43.895 59.266,44 59,44 L59,44 Z" id="Fill-493"></path>
                <path d="M6,34 L4,34 L4,4 C4,1.794 5.794,0 8,0 L15,0 L15,2 L8,2 C6.897,2 6,2.897 6,4 L6,34" id="Fill-494"></path>
                <path d="M58,34 L58,4 C58,2.897 57.103,2 56,2 L15,2 L15,0 L56,0 C58.206,0 60,1.794 60,4 L60,34 L58,34 Z" id="Fill-495"></path>
                <polygon id="Fill-496" points="27 32 29 32 29 30 27 30"></polygon>
                <polygon id="Fill-497" points="23 32 25 32 25 30 23 30"></polygon>
                <polygon id="Fill-498" points="31 32 33 32 33 30 31 30"></polygon>
                <polygon id="Fill-499" points="35 32 37 32 37 30 35 30"></polygon>
                <polygon id="Fill-500" points="39 32 41 32 41 30 39 30"></polygon>
                <path d="M55,32 L43,32 L43,30 L54,30 L54,6 L49,6 L49,4 L55,4 C55.553,4 56,4.448 56,5 L56,31 C56,31.552 55.553,32 55,32" id="Fill-501"></path>
                <path d="M9,32 C8.447,32 8,31.552 8,31 L8,5 C8,4.448 8.447,4 9,4 L50,4 L50,6 L10,6 L10,30 L21,30 L21,32 L9,32 Z" id="Fill-502"></path>
            </g>
        </g>
    </g>
</svg>