<?xml version="1.0" encoding="UTF-8"?>
<svg width="38px" height="64px" viewBox="0 0 38 64" version="1.1" xmlns="http://www.w3.org/2000/svg" xmlns:xlink="http://www.w3.org/1999/xlink">
    <!-- Generator: Sketch 42 (36781) - http://www.bohemiancoding.com/sketch -->
    <title>Group 2</title>
    <desc>Created with Sketch.</desc>
    <defs></defs>
    <g id="INSTALL-PAGE" stroke="none" stroke-width="1" fill="none" fill-rule="evenodd">
        <g id="Install-Page-Copy" transform="translate(-1067.000000, -798.000000)" fill="#1E2221">
            <g id="Group-2" transform="translate(1067.000000, 798.000000)">
                <path d="M6,64 C2.691,64 0,61.309 0,58 L0,6 C0,2.691 2.691,0 6,0 L32,0 C35.309,0 38,2.691 38,6 L38,43 L36,43 L36,6 C36,3.794 34.206,2 32,2 L6,2 C3.794,2 2,3.794 2,6 L2,58 C2,60.206 3.794,62 6,62 L32,62 C34.206,62 36,60.206 36,58 L36,43 L38,43 L38,58 C38,61.309 35.309,64 32,64 L6,64 Z" id="Fill-477"></path>
                <polygon id="Fill-478" points="17 60 21 60 21 58 17 58"></polygon>
                <polygon id="Fill-479" points="12 6 14 6 14 4 12 4"></polygon>
                <polygon id="Fill-480" points="16 6 26 6 26 4 16 4"></polygon>
                <polygon id="Fill-481" points="1 10 37 10 37 8 1 8"></polygon>
                <polygon id="Fill-482" points="1 56 37 56 37 54 1 54"></polygon>
                <polygon id="Fill-483" points="4 52 4 12 34 12 34 27 32 27 32 14 6 14 6 50 32 50 32 27 34 27 34 52"></polygon>
            </g>
        </g>
    </g>
</svg>