<?xml version="1.0" encoding="UTF-8"?>
<svg width="54px" height="64px" viewBox="0 0 54 64" version="1.1" xmlns="http://www.w3.org/2000/svg" xmlns:xlink="http://www.w3.org/1999/xlink">
    <!-- Generator: Sketch 42 (36781) - http://www.bohemiancoding.com/sketch -->
    <title>Page 1</title>
    <desc>Created with Sketch.</desc>
    <defs>
        <polygon id="path-1" points="0 64 54 64 54 0 0 0"></polygon>
    </defs>
    <g id="INSTALL-PAGE" stroke="none" stroke-width="1" fill="none" fill-rule="evenodd">
        <g id="Install-Page-Copy" transform="translate(-283.000000, -798.000000)">
            <g id="Page-1" transform="translate(283.000000, 798.000000)">
                <path d="M0,18 L54,18 L54,0 L0,0 L0,18 Z M2,16 L52,16 L52,2 L2,2 L2,16 Z" id="Fill-1" fill="#363F40"></path>
                <polygon id="Fill-2" fill="#363F40" points="4 21 6 21 6 17 4 17"></polygon>
                <polygon id="Fill-3" fill="#363F40" points="48 21 50 21 50 17 48 17"></polygon>
                <polygon id="Fill-4" fill="#363F40" points="6 12 8 12 8 6 6 6"></polygon>
                <polygon id="Fill-5" fill="#363F40" points="10 12 12 12 12 6 10 6"></polygon>
                <polygon id="Fill-6" fill="#363F40" points="14 12 16 12 16 6 14 6"></polygon>
                <polygon id="Fill-7" fill="#363F40" points="18 12 20 12 20 6 18 6"></polygon>
                <polygon id="Fill-8" fill="#363F40" points="22 12 24 12 24 6 22 6"></polygon>
                <path d="M0,38 L54,38 L54,20 L0,20 L0,38 Z M2,36 L52,36 L52,22 L2,22 L2,36 Z" id="Fill-9" fill="#363F40"></path>
                <polygon id="Fill-10" fill="#363F40" points="4 41 6 41 6 37 4 37"></polygon>
                <polygon id="Fill-11" fill="#363F40" points="48 41 50 41 50 37 48 37"></polygon>
                <polygon id="Fill-12" fill="#363F40" points="6 32 8 32 8 26 6 26"></polygon>
                <polygon id="Fill-13" fill="#363F40" points="10 32 12 32 12 26 10 26"></polygon>
                <polygon id="Fill-14" fill="#363F40" points="14 32 16 32 16 26 14 26"></polygon>
                <polygon id="Fill-15" fill="#363F40" points="18 32 20 32 20 26 18 26"></polygon>
                <polygon id="Fill-16" fill="#363F40" points="22 32 24 32 24 26 22 26"></polygon>
                <polygon id="Fill-17" fill="#363F40" points="35 30 37 30 37 28 35 28"></polygon>
                <polygon id="Fill-18" fill="#363F40" points="31 30 33 30 33 28 31 28"></polygon>
                <polygon id="Fill-19" fill="#363F40" points="27 30 29 30 29 28 27 28"></polygon>
                <path d="M0,58 L54,58 L54,40 L0,40 L0,58 Z M2,55.999 L52,55.999 L52,42 L2,42 L2,55.999 Z" id="Fill-20" fill="#363F40"></path>
                <polygon id="Fill-21" fill="#363F40" points="4 64 6.001 64 6.001 57 4 57"></polygon>
                <polygon id="Fill-22" fill="#363F40" points="48 64 50.001 64 50.001 57 48 57"></polygon>
                <polygon id="Fill-23" fill="#363F40" points="6 52 8 52 8 46 6 46"></polygon>
                <polygon id="Fill-24" fill="#363F40" points="10 52 12 52 12 46 10 46"></polygon>
                <polygon id="Fill-25" fill="#363F40" points="14 52 16 52 16 46 14 46"></polygon>
                <polygon id="Fill-26" fill="#363F40" points="18 52 20 52 20 46 18 46"></polygon>
                <polygon id="Fill-27" fill="#363F40" points="22 52 24 52 24 46 22 46"></polygon>
                <g id="Group-40">
                    <path d="M44,27 C42.897,27 42,27.897 42,29 C42,30.103 42.897,31 44,31 C45.103,31 46,30.103 46,29 C46,27.897 45.103,27 44,27 Z M44,33 C41.794,33 40,31.206 40,29 C40,26.794 41.794,25 44,25 C46.206,25 48,26.794 48,29 C48,31.206 46.206,33 44,33 Z" id="Fill-28" fill="#363F40"></path>
                    <mask id="mask-2" fill="white">
                        <use xlink:href="#path-1"></use>
                    </mask>
                    <g id="Clip-31"></g>
                    <polygon id="Fill-30" fill="#363F40" mask="url(#mask-2)" points="35 50 37 50 37 48 35 48"></polygon>
                    <polygon id="Fill-32" fill="#363F40" mask="url(#mask-2)" points="31 50 33 50 33 48 31 48"></polygon>
                    <polygon id="Fill-33" fill="#363F40" mask="url(#mask-2)" points="27 50 29 50 29 48 27 48"></polygon>
                    <path d="M44,47 C42.897,47 42,47.897 42,49 C42,50.103 42.897,51 44,51 C45.103,51 46,50.103 46,49 C46,47.897 45.103,47 44,47 M44,53 C41.794,53 40,51.206 40,49 C40,46.794 41.794,45 44,45 C46.206,45 48,46.794 48,49 C48,51.206 46.206,53 44,53" id="Fill-34" fill="#363F40" mask="url(#mask-2)"></path>
                    <polygon id="Fill-35" fill="#363F40" mask="url(#mask-2)" points="35 10 37 10 37 8 35 8"></polygon>
                    <polygon id="Fill-36" fill="#363F40" mask="url(#mask-2)" points="31 10 33 10 33 8 31 8"></polygon>
                    <polygon id="Fill-37" fill="#363F40" mask="url(#mask-2)" points="27 10 29 10 29 8 27 8"></polygon>
                    <path d="M44,7 C42.897,7 42,7.897 42,9 C42,10.103 42.897,11 44,11 C45.103,11 46,10.103 46,9 C46,7.897 45.103,7 44,7 M44,13 C41.794,13 40,11.206 40,9 C40,6.794 41.794,5 44,5 C46.206,5 48,6.794 48,9 C48,11.206 46.206,13 44,13" id="Fill-38" fill="#363F40" mask="url(#mask-2)"></path>
                </g>
            </g>
        </g>
    </g>
</svg>